<svg width="162" height="51" viewBox="0 0 162 51" fill="none" xmlns="http://www.w3.org/2000/svg">
<g clip-path="url(#clip0_607_7393)">
<path d="M85.6628 12.9288C85.6628 14.7284 84.2011 16.1774 82.3872 16.1774C80.5732 16.1774 79.1126 14.7284 79.1126 12.9288C79.1126 11.1293 80.5234 9.68022 82.3872 9.68022C84.2525 9.73016 85.6628 11.1797 85.6628 12.9288ZM72.1597 19.477V20.2769C72.1597 20.2769 70.5985 18.2766 67.273 18.2766C61.7818 18.2766 57.4986 22.4255 57.4986 28.1732C57.4986 33.8714 61.7315 38.0697 67.273 38.0697C70.6488 38.0697 72.1597 36.0205 72.1597 36.0205V36.8699C72.1597 37.2698 72.4627 37.5689 72.8654 37.5689H76.9458V18.7749H72.8654C72.4627 18.7764 72.1597 19.1269 72.1597 19.477ZM72.1597 31.5221C71.4048 32.6221 69.8928 33.5719 68.0794 33.5719C64.8551 33.5719 62.3858 31.5726 62.3858 28.1732C62.3858 24.7743 64.8551 22.775 68.0794 22.775C69.843 22.775 71.4551 23.7746 72.1597 24.8242V31.5221ZM79.9692 18.7764H84.8056V37.5704H79.9692V18.7764ZM152.218 18.2761C148.893 18.2761 147.33 20.2764 147.33 20.2764V9.73016H142.494V37.5704H146.575C146.978 37.5704 147.28 37.2204 147.28 36.8704V36.021C147.28 36.021 148.842 38.0703 152.167 38.0703C157.659 38.0703 161.941 33.8729 161.941 28.1747C161.941 22.4764 157.659 18.2761 152.218 18.2761ZM151.412 33.5214C149.547 33.5214 148.086 32.5727 147.33 31.4722V24.7743C148.086 23.7746 149.698 22.725 151.412 22.725C154.636 22.725 157.105 24.7243 157.105 28.1232C157.105 31.5221 154.636 33.5214 151.412 33.5214ZM139.975 26.4245V37.6204H135.138V26.9738C135.138 23.8755 134.13 22.6252 131.411 22.6252C129.951 22.6252 128.439 23.3752 127.48 24.4752V37.5709H122.645V18.7769H126.472C126.875 18.7769 127.178 19.1269 127.178 19.477V20.2769C128.589 18.8268 130.452 18.2766 132.316 18.2766C134.433 18.2766 136.196 18.8773 137.607 20.0766C139.319 21.4762 139.975 23.2753 139.975 26.4245ZM110.904 18.2761C107.579 18.2761 106.017 20.2764 106.017 20.2764V9.73016H101.181V37.5704H105.261C105.664 37.5704 105.967 37.2204 105.967 36.8704V36.021C105.967 36.021 107.529 38.0703 110.853 38.0703C116.346 38.0703 120.628 33.8729 120.628 28.1747C120.678 22.4759 116.396 18.2761 110.904 18.2761ZM110.097 33.5214C108.234 33.5214 106.773 32.5727 106.017 31.4722V24.7743C106.773 23.7746 108.385 22.725 110.097 22.725C113.323 22.725 115.791 24.7243 115.791 28.1232C115.791 31.5221 113.323 33.5214 110.097 33.5214ZM96.9985 18.2761C98.4591 18.2761 99.2151 18.5267 99.2151 18.5267V22.9747C99.2151 22.9747 95.1845 21.625 92.6659 24.4747V37.6199H87.8285V18.7764H91.91C92.3131 18.7764 92.6146 19.1264 92.6146 19.4765V20.2764C93.5226 19.2263 95.4875 18.2761 96.9985 18.2761ZM46.7679 35.8707C46.5162 35.2711 46.264 34.6214 46.0124 34.0712C45.6087 33.1719 45.2056 32.3215 44.8538 31.5221L44.8034 31.4722C41.3265 23.9744 37.5989 16.3777 33.6685 8.88082L33.5175 8.58021C33.1041 7.8025 32.7013 7.01933 32.3091 6.2309C31.8047 5.33062 31.3014 4.3819 30.4951 3.48162C28.883 1.48233 26.5652 0.382324 24.0969 0.382324C21.5773 0.382324 19.3104 1.48234 17.6484 3.38127C16.8924 4.28055 16.3378 5.23027 15.8345 6.13055C15.4412 6.91848 15.0384 7.70164 14.626 8.47986L14.4745 8.78044C10.5949 16.2773 6.81651 23.8745 3.34009 31.3718L3.28927 31.4712C2.93694 32.2721 2.53328 33.1215 2.13012 34.0202C1.87846 34.5705 1.6268 35.1702 1.37514 35.8198C0.719825 37.6688 0.517985 39.4184 0.77065 41.2185C1.3248 44.9674 3.84341 48.1151 7.32033 49.5157C8.63046 50.066 9.99093 50.3157 11.4012 50.3157C11.8044 50.3157 12.3077 50.2657 12.7114 50.2153C14.3743 50.0156 16.0871 49.4663 17.7501 48.5166C19.8157 47.3666 21.7806 45.7179 23.9973 43.3186C26.2139 45.7179 28.2292 47.3666 30.2445 48.5166C31.9079 49.4663 33.6202 50.0156 35.2826 50.2153C35.6858 50.2662 36.1901 50.3157 36.5933 50.3157C38.0041 50.3157 39.4144 50.066 40.6737 49.5157C44.201 48.1151 46.6692 44.9175 47.2239 41.2185C47.624 39.4694 47.4227 37.7207 46.7679 35.8707ZM24.0461 38.4697C21.3252 35.0708 19.5615 31.8722 18.9575 29.1738C18.7059 28.0239 18.6551 27.0242 18.8065 26.1244C18.9067 25.3245 19.2097 24.6245 19.6129 24.0248C20.5702 22.6761 22.1823 21.8258 24.0466 21.8258C25.9114 21.8258 27.5738 22.6257 28.4808 24.0248C28.884 24.6245 29.186 25.325 29.2876 26.1244C29.4381 27.0247 29.3878 28.0738 29.1361 29.1738C28.5296 31.8222 26.766 35.0214 24.0461 38.4697ZM44.1476 40.819C43.7953 43.418 42.0316 45.6679 39.5634 46.6676C38.3544 47.1669 37.0438 47.3172 35.7346 47.1669C34.4753 47.0166 33.215 46.6167 31.9059 45.8677C30.0919 44.867 28.2785 43.3186 26.162 41.0187C29.487 36.9707 31.5022 33.2713 32.2582 29.9732C32.6111 28.4233 32.6619 27.0242 32.5099 25.724C32.3091 24.4747 31.8551 23.3247 31.1499 22.3251C29.5871 20.0751 26.9668 18.7764 24.0456 18.7764C21.1243 18.7764 18.5041 20.1261 16.9423 22.3251C16.2371 23.3247 15.7831 24.4747 15.5818 25.724C15.3805 27.0242 15.4303 28.4733 15.8334 29.9732C16.5889 33.2713 18.6546 37.0202 21.9291 41.0687C19.8635 43.3681 17.9992 44.918 16.1853 45.9176C14.8751 46.6676 13.6163 47.0676 12.357 47.2169C10.9971 47.3672 9.68643 47.1669 8.52779 46.7175C6.05952 45.7179 4.2959 43.4679 3.94357 40.869C3.79258 39.6197 3.89274 38.3703 4.39706 36.9707C4.54756 36.4704 4.80022 35.9711 5.05188 35.3714C5.4047 34.5715 5.80686 33.7211 6.21052 32.8718L6.26136 32.7724C9.73727 25.3245 13.4653 17.7273 17.3449 10.3303L17.4959 10.0298C17.8996 9.28077 18.3027 8.48085 18.7054 7.73087C19.1085 6.93095 19.5615 6.18097 20.1162 5.53085C21.1742 4.33247 22.5844 3.68185 24.1467 3.68185C25.709 3.68185 27.1194 4.33247 28.1773 5.53085C28.732 6.18247 29.185 6.93245 29.5881 7.73087C29.9918 8.48085 30.3949 9.28077 30.7971 10.0298L30.9486 10.3303C34.769 17.7581 38.4476 25.2567 41.9823 32.8224V32.8723C42.386 33.6732 42.7383 34.572 43.1415 35.3729C43.3931 35.9716 43.6453 36.4709 43.7963 36.9713C44.1984 38.2695 44.3494 39.5198 44.1476 40.819Z" fill="#CFCFDE"/>
</g>
<defs>
<clipPath id="clip0_607_7393">
<rect width="161.323" height="49.9333" fill="white" transform="translate(0.639648 0.382812)"/>
</clipPath>
</defs>
</svg>
