<svg width="155" height="47" viewBox="0 0 155 47" fill="none" xmlns="http://www.w3.org/2000/svg">
<g clip-path="url(#clip0_607_7395)">
<path fill-rule="evenodd" clip-rule="evenodd" d="M96.2732 36.3495C87.3786 42.9034 74.441 46.3953 63.2823 46.3953C47.6493 46.3953 33.6335 40.6472 22.96 31.0849C22.1514 30.3328 22.8521 29.3121 23.8764 29.903C35.3585 36.5644 49.536 40.5397 64.1987 40.5397C74.0636 40.5397 84.9528 38.4983 94.9795 34.2544C96.4889 33.6635 97.7287 35.2751 96.2732 36.3495Z" fill="#CFCFDE"/>
<path fill-rule="evenodd" clip-rule="evenodd" d="M99.9928 32.1058C98.8608 30.6553 92.4458 31.4074 89.5888 31.7835C88.7263 31.8909 88.5646 31.1388 89.3732 30.6016C94.4943 27.0023 102.85 28.0767 103.82 29.2586C104.79 30.4404 103.551 38.8209 98.7529 42.7962C97.9982 43.3871 97.2974 43.0648 97.6209 42.259C98.699 39.573 101.125 33.61 99.9928 32.1058Z" fill="#CFCFDE"/>
<path fill-rule="evenodd" clip-rule="evenodd" d="M89.7506 5.35296V1.86112C89.7506 1.32391 90.1279 1.00158 90.6131 1.00158H106.246C106.731 1.00158 107.162 1.37763 107.162 1.86112V4.81575C107.162 5.29924 106.731 5.94389 105.977 7.0183L97.8905 18.5145C100.909 18.4608 104.09 18.8906 106.785 20.3947C107.378 20.7171 107.54 21.2543 107.594 21.7378V25.4445C107.594 25.9817 107.055 26.5726 106.462 26.2503C101.664 23.7254 95.249 23.4568 89.9662 26.304C89.4271 26.5726 88.8341 26.0354 88.8341 25.4982V21.9526C88.8341 21.4154 88.8341 20.4485 89.4271 19.5889L98.8069 6.21249H90.667C90.1818 6.21249 89.7506 5.83645 89.7506 5.35296ZM32.771 27.0024H28.0272C27.596 26.9487 27.2186 26.6263 27.1647 26.1966V1.91484C27.1647 1.43136 27.596 1.05531 28.0811 1.05531H32.5015C32.9867 1.05531 33.3101 1.43135 33.364 1.86112V5.03063H33.4718C34.6039 1.96856 36.814 0.518102 39.725 0.518102C42.6899 0.518102 44.5766 1.96856 45.8704 5.03063C47.0024 1.96856 49.6439 0.518102 52.447 0.518102C54.4416 0.518102 56.5979 1.32391 57.9455 3.20413C59.4549 5.24552 59.1315 8.20016 59.1315 10.8325V26.1966C59.1315 26.68 58.7002 27.0561 58.2151 27.0561H53.5252C53.04 27.0024 52.6626 26.6263 52.6626 26.1966V13.3036C52.6626 12.2829 52.7705 9.70432 52.5548 8.73735C52.1775 7.12573 51.1533 6.64225 49.7517 6.64225C48.6196 6.64225 47.3798 7.39435 46.8946 8.62992C46.4095 9.8655 46.4634 11.9069 46.4634 13.3036V26.1966C46.4634 26.68 46.0321 27.0561 45.5469 27.0561H40.8031C40.318 27.0024 39.9406 26.6263 39.9406 26.1966V13.3036C39.9406 10.6176 40.3719 6.58853 37.0297 6.58853C33.6335 6.58853 33.7414 10.4564 33.7414 13.3036V26.1966C33.6875 26.6263 33.3101 27.0024 32.771 27.0024ZM120.639 0.518102C127.701 0.518102 131.528 6.53481 131.528 14.2169C131.528 21.6303 127.324 27.5396 120.639 27.5396C113.739 27.5396 109.966 21.5229 109.966 14.002C109.912 6.42738 113.739 0.518102 120.639 0.518102ZM120.639 5.51411C117.135 5.51411 116.92 10.2953 116.92 13.2499C116.92 16.2045 116.866 22.5436 120.585 22.5436C124.251 22.5436 124.467 17.4401 124.467 14.3243C124.467 12.2829 124.359 9.81178 123.766 7.87784C123.227 6.15878 122.149 5.51411 120.639 5.51411ZM140.639 27.0024H135.895C135.41 26.9487 135.032 26.5726 135.032 26.1429V1.80739C135.086 1.37763 135.464 1.00158 135.949 1.00158H140.369C140.8 1.00158 141.124 1.32392 141.232 1.69996V5.40668H141.339C142.687 2.076 144.52 0.518102 147.808 0.518102C149.911 0.518102 152.013 1.27018 153.361 3.36529C154.6 5.29923 154.6 8.57619 154.6 10.9399V26.2503C154.547 26.6801 154.169 27.0024 153.684 27.0024H148.94C148.509 26.9487 148.132 26.6263 148.078 26.2503V13.035C148.078 10.349 148.401 6.4811 145.113 6.4811C143.981 6.4811 142.903 7.23319 142.364 8.41504C141.717 9.91922 141.609 11.3697 141.609 13.035V26.1429C141.555 26.6263 141.124 27.0024 140.639 27.0024ZM77.2981 15.3987C77.2981 17.2252 77.352 18.7831 76.4356 20.4485C75.6809 21.7915 74.4949 22.5973 73.1472 22.5973C71.3144 22.5973 70.2363 21.2006 70.2363 19.1592C70.2363 15.1301 73.848 14.378 77.2981 14.378V15.3987ZM82.0958 26.9487C81.7723 27.2173 81.3411 27.271 80.9637 27.0561C79.4004 25.7668 79.077 25.1222 78.2145 23.8866C75.627 26.5189 73.7402 27.3247 70.398 27.3247C66.4089 27.3247 63.2823 24.8536 63.2823 19.965C63.2823 16.0971 65.3847 13.5185 68.3495 12.2292C70.9371 11.1011 74.5488 10.8862 77.2981 10.5639V9.97294C77.2981 8.8448 77.4059 7.50179 76.7051 6.53482C76.1121 5.67529 75.034 5.29924 74.0637 5.29924C72.2308 5.29924 70.6136 6.2125 70.2363 8.14644C70.1285 8.5762 69.8589 9.00596 69.4277 9.00596L64.8456 8.52247C64.4682 8.41503 64.037 8.14644 64.1448 7.55551C65.2229 1.96856 70.2363 0.303223 74.7645 0.303223C77.0824 0.303223 80.1012 0.894146 81.9341 2.66693C84.2521 4.81575 84.0364 7.71667 84.0364 10.8325V18.1922C84.0364 20.3947 84.9528 21.3617 85.8153 22.5973C86.1388 23.0271 86.1927 23.5643 85.8153 23.8329C84.7911 24.6387 83.0661 26.1429 82.0958 26.9487ZM15.0357 15.3987C15.0357 17.2252 15.0896 18.7831 14.1732 20.4485C13.4185 21.7915 12.2325 22.5973 10.8849 22.5973C9.05202 22.5973 7.97389 21.2006 7.97389 19.1592C7.97389 15.1301 11.5857 14.378 15.0357 14.378V15.3987ZM19.7795 26.9487C19.456 27.2173 19.0248 27.271 18.6474 27.0561C17.0841 25.7668 16.7607 25.1222 15.8982 23.8866C13.3107 26.5189 11.4239 27.3247 8.0817 27.3247C4.0926 27.3247 0.966003 24.8536 0.966003 19.965C0.966003 16.0971 3.06837 13.5185 6.03324 12.2292C8.62077 11.1011 12.2325 10.8862 14.9818 10.5639V9.97294C14.9818 8.8448 15.0896 7.50179 14.3888 6.53482C13.7958 5.67529 12.7177 5.29924 11.7474 5.29924C9.91454 5.29924 8.29733 6.2125 7.91998 8.14644C7.81217 8.5762 7.54263 9.00596 7.11138 9.00596L2.5293 8.52247C2.15195 8.41503 1.7207 8.14644 1.82852 7.55551C2.90665 1.96856 7.91999 0.303223 12.4482 0.303223C14.7662 0.303223 17.7849 0.894146 19.6178 2.66693C21.9358 4.81575 21.7201 7.71667 21.7201 10.8325V18.1922C21.7201 20.3947 22.6366 21.3617 23.4991 22.5973C23.8225 23.0271 23.8764 23.5643 23.4991 23.8329C22.4748 24.6387 20.7498 26.1429 19.7795 26.9487Z" fill="#CFCFDE"/>
</g>
<defs>
<clipPath id="clip0_607_7395">
<rect width="153.641" height="46.0923" fill="white" transform="translate(154.604 46.3955) rotate(-180)"/>
</clipPath>
</defs>
</svg>
