<svg width="169" height="55" viewBox="0 0 169 55" fill="none" xmlns="http://www.w3.org/2000/svg">
<g clip-path="url(#clip0_607_7384)">
<path d="M20.7271 0.00585938H22.2238C27.4197 0.11833 32.5309 2.19904 36.202 5.88245C34.8465 7.26022 33.4628 8.58175 32.1356 9.95952C30.0742 8.10375 27.5891 6.66975 24.8782 6.16363C20.8683 5.3201 16.5478 6.07928 13.1874 8.35681C9.51632 10.7468 7.03131 14.7958 6.49477 19.1259C5.90175 23.3998 7.11602 27.8986 9.91166 31.2165C12.5943 34.45 16.689 36.4745 20.9248 36.6151C24.8782 36.84 29.0011 35.631 31.8814 32.8754C34.1405 30.9353 35.1854 27.9829 35.5243 25.1149C30.8366 25.1149 26.149 25.1431 21.4613 25.1149V19.3227H41.2002C42.2168 25.5367 40.7484 32.538 36.0043 36.9806C32.8416 40.1298 28.4646 41.9855 24.0028 42.3511C19.6823 42.7728 15.2206 41.9574 11.3801 39.8767C6.77716 37.4305 3.10611 33.2972 1.29883 28.4328C-0.395498 23.9621 -0.423737 18.9009 1.15764 14.4021C2.59781 10.2969 5.36522 6.66975 8.92331 4.13916C12.3402 1.63668 16.4913 0.258918 20.7271 0.00585938Z" fill="#CFCFDE"/>
<path d="M133.965 1.4668H140.008V41.6188C138.003 41.6188 135.97 41.647 133.965 41.5907C133.993 28.2348 133.965 14.8508 133.965 1.4668Z" fill="#CFCFDE"/>
<path d="M54.6421 15.3852C58.3696 14.6822 62.4077 15.4695 65.4858 17.6908C68.2814 19.6591 70.2299 22.752 70.8229 26.1261C71.5853 30.0345 70.6252 34.3084 68.0837 37.4013C65.3446 40.8598 60.8546 42.7155 56.4776 42.4344C52.4677 42.2094 48.5707 40.2131 46.1987 36.9514C43.516 33.3523 42.8665 28.4036 44.3349 24.186C45.8033 19.6591 49.9544 16.2006 54.6421 15.3852ZM55.4892 20.7275C53.9643 21.1212 52.5524 21.9928 51.5358 23.23C48.7966 26.4916 48.9661 31.8059 51.9876 34.8426C53.7102 36.5859 56.3081 37.4013 58.7084 36.9233C60.9393 36.5296 62.8878 35.0394 63.9609 33.0712C65.8246 29.7252 65.2881 25.1139 62.436 22.4989C60.6004 20.8119 57.9178 20.1089 55.4892 20.7275Z" fill="#CFCFDE"/>
<path d="M84.5752 15.3853C88.8392 14.5699 93.4986 15.7508 96.6896 18.7313C101.886 23.3707 102.45 32.0591 98.0168 37.4014C95.3342 40.7755 90.9854 42.6313 86.6931 42.4345C82.5985 42.322 78.5603 40.2975 76.1318 36.9515C73.3926 33.2681 72.7996 28.2069 74.3527 23.9049C75.9059 19.5186 79.9723 16.1726 84.5752 15.3853ZM85.4223 20.7276C83.8975 21.1213 82.4855 21.9929 81.4689 23.202C78.758 26.4074 78.871 31.6373 81.7795 34.7021C83.5021 36.5298 86.1848 37.4295 88.6698 36.9234C90.8724 36.5017 92.8491 35.0395 93.9222 33.0713C95.7577 29.6972 95.2212 25.0859 92.3408 22.4709C90.5053 20.7839 87.8226 20.1091 85.4223 20.7276Z" fill="#CFCFDE"/>
<path d="M109.962 17.016C113.209 14.9915 117.53 14.4292 121.031 16.1725C122.133 16.6505 123.036 17.4659 123.912 18.2813C123.94 17.5221 123.912 16.7348 123.94 15.9475C125.832 15.9757 127.724 15.9475 129.644 15.9757V40.7754C129.616 44.5151 128.656 48.4797 125.945 51.2071C122.98 54.2157 118.433 55.1435 114.339 54.525C109.962 53.8783 106.15 50.701 104.455 46.6801C106.15 45.8647 107.929 45.218 109.679 44.4588C110.668 46.7645 112.673 48.7327 115.186 49.1826C117.699 49.6325 120.608 49.0139 122.246 46.9332C123.997 44.7962 123.997 41.872 123.912 39.2571C122.613 40.5224 121.116 41.6471 119.309 42.0688C115.384 43.1654 111.063 41.8158 108.042 39.1727C104.992 36.5297 103.185 32.4526 103.354 28.4037C103.439 23.8205 106.037 19.406 109.962 17.016ZM115.807 20.6151C114.085 20.8962 112.475 21.8522 111.374 23.1738C108.719 26.3229 108.719 31.356 111.402 34.449C112.927 36.2766 115.384 37.2888 117.756 37.0358C119.987 36.8108 122.048 35.405 123.149 33.4648C125.013 30.1751 124.703 25.7044 122.189 22.8364C120.636 21.0649 118.151 20.1933 115.807 20.6151Z" fill="#CFCFDE"/>
<path d="M147.265 18.45C150.654 15.3008 155.878 14.2323 160.227 15.8913C164.35 17.4377 166.976 21.3461 168.303 25.3669C162.175 27.8975 156.076 30.4 149.948 32.9306C150.795 34.5333 152.094 35.9954 153.845 36.5859C156.302 37.4575 159.239 37.1482 161.3 35.5174C162.119 34.8988 162.768 34.0834 163.39 33.2961C164.943 34.3365 166.496 35.3487 168.049 36.3891C165.847 39.6788 162.147 41.9845 158.166 42.35C153.76 42.8843 149.073 41.1972 146.221 37.7668C141.533 32.3682 141.985 23.3143 147.265 18.45ZM150.287 23.6518C149.327 25.0295 148.931 26.7166 148.96 28.3755C153.054 26.6885 157.149 25.0014 161.244 23.2862C160.566 21.7116 158.928 20.7556 157.262 20.5026C154.579 20.0246 151.784 21.4586 150.287 23.6518Z" fill="#CFCFDE"/>
</g>
<defs>
<clipPath id="clip0_607_7384">
<rect width="168.303" height="54.6985" fill="white"/>
</clipPath>
</defs>
</svg>
