<svg width="132" height="51" viewBox="0 0 132 51" fill="none" xmlns="http://www.w3.org/2000/svg">
<path d="M104.408 16.0063V0.104492H107.652V13.7741C106.754 14.2255 105.531 15.0783 104.408 16.0063ZM98.7669 20.7969C99.7653 19.593 100.789 18.3891 102.012 17.3607V0.104492H98.7669V20.7969ZM61.1789 33.4381C61.1789 37.677 62.8512 41.7151 65.9211 44.8002C68.9661 47.8602 72.9845 49.5657 77.2275 49.5657C79.0245 49.5657 80.8714 49.1895 82.1693 48.5374V45.2767C80.6468 45.9289 78.7999 46.3051 77.2275 46.3051C70.2889 46.3051 64.4485 40.436 64.4485 33.4632V30.5287C64.4485 23.5559 70.3139 17.6868 77.2275 17.6868C80.6718 17.6868 83.8915 19.0161 86.2875 21.424C88.6836 23.8318 90.0064 27.0674 90.0064 30.5287V49.5908H93.251V29.9016C93.0514 25.7381 91.2793 21.8504 88.2842 18.9409C85.2642 16.0314 81.3457 14.4262 77.2275 14.4262C73.0094 14.4262 68.991 16.1067 65.9211 19.1917C62.8761 22.2517 61.1789 26.2899 61.1789 30.5537V33.4381ZM109.749 25.6126C111.221 24.1328 113.118 23.3051 114.99 23.3051C119.009 23.3051 122.128 26.4654 122.128 30.4785V33.4131C122.128 37.4512 118.984 40.5865 114.99 40.5865C113.043 40.5865 111.172 39.5079 109.699 37.5766C108.401 35.8711 107.552 33.5385 107.428 31.4567L104.807 34.7173C105.331 37.1753 106.604 39.5581 108.426 41.2135C110.298 42.9191 112.644 43.8722 114.99 43.8722C120.731 43.8722 125.398 39.1819 125.398 33.4381V30.5036C125.398 27.7697 124.3 25.1612 122.303 23.1797C120.306 21.1732 117.711 20.0696 114.99 20.0696C113.268 20.0696 110.548 20.6966 107.303 23.6312C106.429 24.509 104.383 26.5658 103.135 28.0205C101.038 30.328 98.0182 33.7642 95.4225 37.2506V42.3422C98.2927 38.6301 99.94 36.5483 102.661 33.4131C105.057 30.5537 108.052 27.1175 109.749 25.6126ZM33.0752 19.4676V15.605C30.1301 14.0249 26.9354 13.3226 22.6923 13.3226C18.3495 13.3226 14.2313 14.9278 11.1114 17.8122C7.96662 20.7217 6.24446 24.5341 6.24446 28.5974V29.6508C6.24446 38.0783 12.9584 44.9256 21.2447 44.9256C27.9587 44.9256 30.7291 42.7184 31.4279 42.0161V32.2091H20.4461V35.4698H28.383V40.3858H28.358C27.3347 40.7871 25.2132 41.6399 21.2447 41.6399C18.0999 41.6399 15.1298 40.4109 12.9334 38.1535C10.7121 35.8962 9.51407 32.8864 9.51407 29.6257V28.5723C9.51407 22.0761 15.5541 16.5581 22.7173 16.5581C27.6342 16.5832 30.5793 17.4109 33.0752 19.4676ZM56.7362 23.3051C57.9592 23.3051 59.0075 23.5058 59.8561 23.9071C60.2554 22.9038 60.6797 22.051 61.2787 21.0478C60.4052 20.4207 58.2837 20.0194 56.7362 20.0194C50.821 20.0194 46.3533 24.509 46.3533 30.4785V49.5406H49.598V30.4785C49.598 26.2648 52.5182 23.3051 56.7362 23.3051ZM0.60376 28.5974V29.6508C0.60376 35.3193 2.75022 40.5865 6.61884 44.5243C10.4875 48.437 15.6789 50.5941 21.2198 50.5941C25.6874 50.5941 29.6309 49.5908 32.9754 47.5843C35.7209 45.9289 36.9439 44.2735 37.0437 44.123V26.5657H20.4461V29.8264H33.799V43.1448C32.2266 44.7249 28.5078 47.3585 21.2447 47.3585C16.5026 47.3585 12.1098 45.5276 8.86514 42.2168C5.64545 38.9311 3.87337 34.4665 3.87337 29.6759V28.6225C3.87337 24.0827 5.89504 19.5679 9.4392 16.2321C13.0582 12.8209 17.7755 10.9398 22.7173 10.9398C27.3347 10.9398 30.5294 11.6421 33.1002 13.2223V9.53523C30.4046 8.38147 27.1849 7.87984 22.6923 7.87984C10.7121 7.87984 0.60376 17.3607 0.60376 28.5974ZM87.5854 49.5406V30.4785C87.5854 24.6094 83.0179 20.0194 77.1775 20.0194C74.457 20.0194 71.8613 21.123 69.8646 23.1295C67.8679 25.1361 66.7697 27.7446 66.7697 30.4534V33.388C66.7697 39.0565 71.5368 43.822 77.1526 43.822C78.7 43.822 80.7966 43.4458 82.0944 42.3673V38.9812C80.8215 40.0096 78.9995 40.6115 77.1526 40.6115C73.1592 40.6115 70.0143 37.4512 70.0143 33.4381V30.5036C70.0143 26.4654 73.1592 23.3302 77.1526 23.3302C81.171 23.3302 84.2908 26.4905 84.2908 30.5036V49.5657H87.5854V49.5406ZM56.7362 17.6366C58.9326 17.6366 60.8544 18.1132 62.5766 19.0914C63.3753 18.063 64.1989 17.2604 64.8229 16.6334C63.0009 15.2288 59.906 14.376 56.7612 14.376C52.2436 14.376 48.1504 16.0063 45.2302 18.9911C42.335 21.9256 40.7376 26.0139 40.7376 30.5036V49.5657H43.9823V30.5036C43.9573 22.9289 49.1987 17.6366 56.7362 17.6366ZM126.297 19.1415C123.252 16.0816 119.233 14.376 114.99 14.376C111.895 14.376 108.8 15.5298 107.078 16.6835C103.534 19.0412 100.639 21.6246 95.3975 28.4218V33.3127C99.8402 27.4938 104.033 22.9289 107.228 20.3956C109.325 18.7152 112.295 17.6617 114.99 17.6617C121.929 17.6617 127.769 23.5559 127.769 30.5036V33.4381C127.769 36.8744 126.421 40.1099 123.975 42.5428C121.554 44.9507 118.36 46.28 114.99 46.28C109.3 46.28 104.283 42.3422 102.935 36.9998L100.639 39.7838C102.311 45.4021 108.351 49.5406 114.99 49.5406C119.233 49.5406 123.227 47.8351 126.297 44.7751C129.342 41.6901 131.039 37.677 131.039 33.4131V30.4785C131.039 26.2397 129.342 22.2015 126.297 19.1415Z" fill="#CFCFDE"/>
</svg>
