<svg width="90" height="74" viewBox="0 0 90 74" fill="none" xmlns="http://www.w3.org/2000/svg">
<path fill-rule="evenodd" clip-rule="evenodd" d="M46.5199 73.9976C55.1948 62.2281 68.6219 62.2322 78.2272 55.1185C93.7661 43.6108 92.5586 15.4391 82.5187 0C78.5874 29.0421 46.5199 21.6741 46.5199 74" fill="url(#paint0_linear_607_7265)"/>
<path opacity="0.3" fill-rule="evenodd" clip-rule="evenodd" d="M46.5199 73.9967C55.1948 62.2273 68.6219 62.2314 78.2272 55.1185C84.1933 50.7007 87.6891 43.8233 89.1658 36.155C81.7678 34.3104 74.0071 34.7925 66.8749 37.5397C59.7426 40.287 53.5626 45.1746 49.1241 51.5785C47.4946 57.5797 46.5199 64.8788 46.5199 73.9943" fill="#267C26"/>
<path opacity="0.3" fill-rule="evenodd" clip-rule="evenodd" d="M46.5199 73.9976C55.1948 62.2281 68.6219 62.2322 78.2272 55.1185C93.7661 43.6108 92.5586 15.4391 82.5187 0C92.1928 53.0487 51.7647 44.0489 46.5199 74" fill="#267C26"/>
<path opacity="0.3" fill-rule="evenodd" clip-rule="evenodd" d="M70.8714 21.0071C60.2741 31.0636 46.5199 39.7287 46.5199 73.9967C50.8415 64.3833 59.9859 57.8751 70.8714 54.4999V21.0071Z" fill="black"/>
<path fill-rule="evenodd" clip-rule="evenodd" d="M67.3844 2.58508V51.5399C58.0563 56.2384 50.2239 63.8591 46.5199 73.9976V37.6982C46.5199 22.0868 55.1504 9.90304 67.3844 2.58508Z" fill="url(#paint1_linear_607_7265)"/>
<path opacity="0.3" fill-rule="evenodd" clip-rule="evenodd" d="M46.5199 73.9976C46.5199 44.3656 56.8037 33.88 66.4382 25.0837V50.9263C58.4704 55.0619 49.5588 63.2191 46.5199 73.9943" fill="#1D5204"/>
<path opacity="0.3" fill-rule="evenodd" clip-rule="evenodd" d="M46.5199 44.7044C46.5199 29.0946 55.1504 16.9101 67.3844 9.59129V2.58508C55.1512 9.90386 46.5199 22.0868 46.5199 37.6982V44.7044Z" fill="#DBE665"/>
<path opacity="0.3" fill-rule="evenodd" clip-rule="evenodd" d="M67.3844 2.58508V51.5399C58.0563 56.2384 50.2239 63.8591 46.5199 73.9976C49.5588 63.2224 58.4696 55.0636 66.4382 50.9296V3.16757C66.7512 2.97067 67.0666 2.77651 67.3844 2.58508Z" fill="#ECF955"/>
<path fill-rule="evenodd" clip-rule="evenodd" d="M43.4794 73.9976C34.8061 62.2281 21.3781 62.2322 11.7729 55.1185C-3.76601 43.6108 -2.55853 15.4391 7.48138 0C11.4126 29.0421 43.4794 21.6741 43.4794 74" fill="url(#paint2_linear_607_7265)"/>
<path opacity="0.3" fill-rule="evenodd" clip-rule="evenodd" d="M43.4794 73.9967C34.8061 62.2273 21.3781 62.2314 11.7729 55.1185C5.80674 50.7007 2.31019 43.8233 0.833496 36.155C8.23145 34.3104 15.9922 34.7925 23.1244 37.5397C30.2567 40.287 36.4367 45.1746 40.8752 51.5785C42.5047 57.5797 43.4794 64.8788 43.4794 73.9943" fill="#267C26"/>
<path opacity="0.3" fill-rule="evenodd" clip-rule="evenodd" d="M43.4794 73.9976C34.8061 62.2281 21.3781 62.2322 11.7729 55.1185C-3.76601 43.6108 -2.55853 15.4391 7.48138 0C-2.19272 53.0487 38.2353 44.0489 43.4794 74" fill="#267C26"/>
<path opacity="0.3" fill-rule="evenodd" clip-rule="evenodd" d="M19.1287 21.0071C29.7252 31.0636 43.4794 39.7287 43.4794 73.9967C39.1562 64.3833 30.0142 57.8751 19.1287 54.4999V21.0071Z" fill="black"/>
<path fill-rule="evenodd" clip-rule="evenodd" d="M22.6157 2.58508V51.5399C31.9438 56.2384 39.7754 63.8591 43.4794 73.9976V37.6982C43.4794 22.0868 34.8489 9.90304 22.6157 2.58508Z" fill="url(#paint3_linear_607_7265)"/>
<path opacity="0.3" fill-rule="evenodd" clip-rule="evenodd" d="M43.4794 73.9976C43.4794 44.3656 33.1964 33.88 23.5619 25.0837V50.9263C31.5305 55.0619 40.4413 63.2191 43.4794 73.9943" fill="#1D5204"/>
<path opacity="0.3" fill-rule="evenodd" clip-rule="evenodd" d="M43.4794 44.7044C43.4794 29.0946 34.8489 16.9101 22.6157 9.59129V2.58508C34.8473 9.90386 43.4794 22.0868 43.4794 37.6982V44.7044Z" fill="#DBE665"/>
<path opacity="0.3" fill-rule="evenodd" clip-rule="evenodd" d="M22.6157 2.58508V51.5399C31.9438 56.2384 39.7754 63.8591 43.4794 73.9976C40.4413 63.2224 31.5297 55.0636 23.5619 50.9296V3.16757C23.2452 2.97149 22.9348 2.77624 22.6157 2.58508Z" fill="#ECF955"/>
<defs>
<linearGradient id="paint0_linear_607_7265" x1="68.3469" y1="86.876" x2="67.5913" y2="-9.54213" gradientUnits="userSpaceOnUse">
<stop stop-color="#267C26"/>
<stop offset="1" stop-color="#31CF74"/>
</linearGradient>
<linearGradient id="paint1_linear_607_7265" x1="56.8269" y1="90.2082" x2="60.0015" y2="-9.31961" gradientUnits="userSpaceOnUse">
<stop stop-color="#1F5507"/>
<stop offset="1" stop-color="#6FDB04"/>
</linearGradient>
<linearGradient id="paint2_linear_607_7265" x1="21.8266" y1="87.024" x2="21.071" y2="-9.39412" gradientUnits="userSpaceOnUse">
<stop stop-color="#267C26"/>
<stop offset="1" stop-color="#4AD585"/>
</linearGradient>
<linearGradient id="paint3_linear_607_7265" x1="32.9224" y1="90.1368" x2="35.8532" y2="-9.4047" gradientUnits="userSpaceOnUse">
<stop stop-color="#1F5507"/>
<stop offset="1" stop-color="#6FDB04"/>
</linearGradient>
</defs>
</svg>
