<svg width="152" height="42" viewBox="0 0 152 42" fill="none" xmlns="http://www.w3.org/2000/svg">
<g clip-path="url(#clip0_607_7391)">
<path d="M143.544 20.3745L151.64 41.6674C149.254 41.3289 146.869 40.9049 144.441 40.5229L139.88 28.7577L135.195 39.5517C132.895 39.1697 130.635 39.0425 128.335 38.7458L136.558 20.1214L129.1 1.03223H136.003L140.178 11.6976L144.652 1.03223H151.638L143.544 20.3745ZM123.649 1.03223H117.386V37.9426C119.431 38.07 121.561 38.1538 123.649 38.4071V1.03223ZM111.975 37.5187C106.266 37.138 100.556 36.8008 94.7195 36.6721V1.03239H101.11V30.662C104.775 30.7461 108.438 31.0414 111.975 31.2107V37.5187ZM87.9011 15.4672V21.8157H79.1673V36.2494H72.8631V1.03223H90.7575V7.38078H79.1687V15.4673H87.9025L87.9011 15.4672ZM62.1249 7.38078V36.588C59.994 36.588 57.8222 36.588 55.7334 36.6721V7.38078H49.1292V1.03223H68.7699V7.38078H62.1249ZM42.2278 22.1531C39.4164 22.1531 36.0924 22.1531 33.7065 22.2818V31.7199C37.4558 31.4653 41.2051 31.17 44.9965 31.0427V37.138L27.3163 38.5358V1.03223H44.9954V7.38078H33.7063V15.9318C36.1781 15.9318 39.9698 15.8045 42.2274 15.8045V22.1544L42.2278 22.1531ZM6.82032 18.5975V40.7775C4.52165 41.0321 2.47515 41.3288 0.303223 41.6674V1.03223H6.39631L14.7036 24.1024V1.03223H21.0951V39.0425C18.8373 39.4245 16.536 39.5517 14.1078 39.8891L6.82032 18.5975Z" fill="#CFCFDE"/>
</g>
<defs>
<clipPath id="clip0_607_7391">
<rect width="151.336" height="40.7149" fill="white" transform="translate(0.303223 0.991699)"/>
</clipPath>
</defs>
</svg>
