<svg width="32" height="36" viewBox="0 0 32 36" fill="none" xmlns="http://www.w3.org/2000/svg">
<path d="M23.1667 17C23.655 17 24.1334 17.04 24.6 17.12L24.89 18.3133C25.0974 19.1726 25.6376 19.9143 26.3918 20.3753C27.146 20.8363 28.0524 20.9789 28.9117 20.7716L29.075 20.7283L30.0767 20.43C30.6817 21.2083 31.165 22.0917 31.5 23.0466L30.755 23.7633C30.1528 24.3416 29.7895 25.1249 29.7371 25.9581C29.6846 26.7914 29.9468 27.614 30.4717 28.2633L30.7084 28.5233L31.5 29.285C31.1667 30.2416 30.6834 31.1233 30.0784 31.9016L29.075 31.605C28.6552 31.4809 28.2151 31.4407 27.7798 31.4867C27.3444 31.5326 26.9224 31.6639 26.5378 31.873C26.1532 32.0821 25.8136 32.3649 25.5383 32.7053C25.263 33.0456 25.0574 33.4369 24.9334 33.8567L24.89 34.02L24.6017 35.2133C23.6512 35.3737 22.6805 35.3737 21.73 35.2133L21.4434 34.02C21.236 33.1607 20.6958 32.419 19.9416 31.958C19.1874 31.497 18.281 31.3544 17.4217 31.5616L17.2584 31.605L16.255 31.9016C15.6428 31.112 15.1627 30.2283 14.8334 29.285L15.5784 28.5683C16.1796 27.9902 16.5423 27.2076 16.5948 26.3751C16.6472 25.5426 16.3857 24.7207 15.8617 24.0716L15.625 23.81L14.8334 23.0483C15.1667 22.0916 15.65 21.21 16.255 20.4316L17.2584 20.7283C17.6781 20.8524 18.1183 20.8926 18.5536 20.8466C18.9889 20.8007 19.4109 20.6694 19.7955 20.4603C20.1801 20.2512 20.5198 19.9684 20.7951 19.628C21.0704 19.2877 21.2759 18.8964 21.4 18.4766L21.4434 18.3133L21.73 17.12C22.1967 17.0416 22.6784 17 23.1667 17ZM16.9167 0.333313C17.9112 0.333313 18.8651 0.728401 19.5683 1.43166C20.2716 2.13492 20.6667 3.08875 20.6667 4.08331V15.6233C18.155 16.2203 15.9388 17.6943 14.4172 19.78C12.8956 21.8656 12.1685 24.4259 12.3667 27H8.58335C8.26665 27.0001 7.96179 27.1204 7.73037 27.3366C7.49895 27.5528 7.35823 27.8488 7.33664 28.1648C7.31506 28.4808 7.41421 28.7931 7.61407 29.0388C7.81394 29.2845 8.0996 29.4451 8.41335 29.4883L8.58335 29.5H12.75L12.8534 29.495C13.3586 31.0568 14.2123 32.4833 15.35 33.6666H4.41669C3.42213 33.6666 2.4683 33.2716 1.76504 32.5683C1.06178 31.865 0.666687 30.9112 0.666687 29.9167V4.08331C0.666687 3.08875 1.06178 2.13492 1.76504 1.43166C2.4683 0.728401 3.42213 0.333313 4.41669 0.333313H16.9167ZM23.1667 23.6666C21.8334 23.6666 20.75 24.7866 20.75 26.1666C20.75 27.5466 21.8334 28.6666 23.1667 28.6666C24.5 28.6666 25.5834 27.5466 25.5834 26.1666C25.5834 24.7866 24.5 23.6666 23.1667 23.6666Z" fill="white"/>
</svg>
